<svg xmlns="http://www.w3.org/2000/svg" viewBox="0 0 24 24" fill="currentColor">
  <path d="M22.2819 9.8211a5.9847 5.9847 0 0 0-.5157-4.9108 6.0462 6.0462 0 0 0-6.5098-2.9A6.0651 6.0651 0 0 0 4.9807 4.1818a5.9847 5.9847 0 0 0-3.9977 2.9 6.0462 6.0462 0 0 0 .7427 7.0966 5.98 5.98 0 0 0 .511 4.9107 6.051 6.051 0 0 0 6.5146 2.9001A5.9847 5.9847 0 0 0 13.2599 24a6.0557 6.0557 0 0 0 5.7718-4.2057 5.9847 5.9847 0 0 0 3.998-2.9001 6.0557 6.0557 0 0 0-.7478-7.0731zM13.2599 22.5002c-1.229 0-2.353-.5138-3.134-1.3404l1.6742-.9666h.0152l.0232-.0122 5.048-2.9157v-2.0298l-3.3276 1.9213v-1.1278l3.3276-1.9213v-2.0298l1.7946-1.036c.2036.568.313 1.173.313 1.8001 0 3.1973-2.5936 5.7909-5.7909 5.7909zm-8.8315-7.5143a4.2766 4.2766 0 0 1-1.3403-3.134c0-1.229.5138-2.353 1.3403-3.134l.9666 1.6742v.0152l.0122.0232 2.9157 5.048h2.0298l-1.9213-3.3276h1.1278l1.9213 3.3276h2.0298l1.036 1.7946a4.341 4.341 0 0 1-1.8001.313c-3.1973 0-5.7909-2.5936-5.7909-5.7909zm-1.3403-6.268c.5303-.7878 1.312-1.3556 2.2217-1.6364l1.6742.9666v.0152l.0122.0232 5.048 2.9157v2.0298L8.7166 7.1065v1.1278l3.3276 1.9213v2.0298l-1.036 1.7946a4.2766 4.2766 0 0 1-.313-1.8001c0-3.1973 2.5936-5.7909 5.7909-5.7909zm7.5143-8.8315c1.229 0 2.353.5138 3.134 1.3403l-1.6742.9666h-.0152l-.0232.0122-5.048 2.9157v2.0298l3.3276-1.9213v1.1278l-3.3276 1.9213v2.0298l-1.7946 1.036c-.2036-.568-.313-1.173-.313-1.8001 0-3.1973 2.5936-5.7909 5.7909-5.7909zm8.8315 7.5143a4.2766 4.2766 0 0 1 1.3403 3.134c0 1.229-.5138 2.353-1.3403 3.134l-.9666-1.6742v-.0152l-.0122-.0232-2.9157-5.048h-2.0298l1.9213 3.3276h-1.1278l-1.9213-3.3276h-2.0298l-1.036-1.7946a4.341 4.341 0 0 1 1.8001-.313c3.1973 0 5.7909 2.5936 5.7909 5.7909zm1.3403 6.268c-.5303.7878-1.312 1.3556-2.2217 1.6364l-1.6742-.9666v-.0152l-.0122-.0232-5.048-2.9157v-2.0298l3.3276 1.9213v-1.1278l-3.3276-1.9213v-2.0298l1.036-1.7946c.1082.5855.1587 1.191.1587 1.8001 0 3.1973-2.5936 5.7909-5.7909 5.7909z" />
</svg>
